{"title":"Piranha.3D.2D_Version.DVDRip","uid":7244250,"size":1627031861,"categoryP":"video","categoryS":"movies_dvdr","magnet":"?xt=urn:btih:187a64cac26b1d8185440723fa51e3e0bd0a85ab&amp;dn=Piranha.3D.2D_Version.DVDRip+&amp;tr=udp%3A%2F%2Ftracker.openbittorrent.com%3A80&amp;tr=udp%3A%2F%2Fopen.demonii.com%3A1337&amp;tr=udp%3A%2F%2Ftracker.coppersurfer.tk%3A6969&amp;tr=udp%3A%2F%2Fexodus.desync.com%3A6969","seeders":0,"leechers":1,"uploader":"kartu567","files":-1,"time":1336224467,"description":"Piranha 3D is a 2010 3D comedy horror film, and the second remake of the 1978 film of the same name. It is directed by Alexandre Aja and sports an ensemble cast featuring Steven R. McQueen, Jessica Szohr, Jerry O'Connell, Richard Dreyfuss, Christopher Lloyd, Elisabeth Shue, Adam Scott, Kelly Brook, Riley Steele, Ving Rhames and Eli Roth.\n\n\nVideo\n\nID : 1\nFormat : AVC\nFormat/Info : Advanced Video Codec\nFormat profile : &lt;a class=&quot;__cf_email__&quot; href=&quot;/cdn-cgi/l/email-protection&quot; data-cfemail=&quot;5f1d3e2c3a3336313a1f136c716e&quot;&gt;[email&amp;#160;protected]&lt;/a&gt;&lt;script cf-hash='f9e31' type=&quot;text/javascript&quot;&gt;\n/* &lt;![CDATA[ */!function(){try{var t=&quot;currentScript&quot;in document?document.currentScript:function(){for(var t=document.getElementsByTagName(&quot;script&quot;),e=t.length;e--;)if(t[e].getAttribute(&quot;cf-hash&quot;))return t[e]}();if(t&amp;&amp;t.previousSibling){var e,r,n,i,c=t.previousSibling,a=c.getAttribute(&quot;data-cfemail&quot;);if(a){for(e=&quot;&quot;,r=parseInt(a.substr(0,2),16),n=2;a.length-n;n+=2)i=parseInt(a.substr(n,2),16)^r,e+=String.fromCharCode(i);e=document.createTextNode(e),c.parentNode.replaceChild(e,c)}}}catch(u){}}();/* ]]&gt; */&lt;/script&gt;\nFormat settings, CABAC : No\nFormat settings, ReFrames : 1 frame\nCodec ID : avc1\nCodec ID/Info : Advanced Video Coding\nDuration : 1h 20mn\nBit rate mode : Variable\nBit rate : 2 419 Kbps\nWidth : 1 024 pixels\nHeight : 576 pixels\nDisplay aspect ratio : 16:9\nFrame rate mode : Constant\nFrame rate : 25.000 fps\nColor space : YUV\nChroma subsampling : 4:2:0\nBit depth : 8 bits\nScan type : Progressive\nBits/(Pixel*Frame) : 0.164\nStream size : 1.37 GiB (92%)\n\n\nAudio\n\nID : 2\nFormat : AAC\nFormat/Info : Advanced Audio Codec\nFormat profile : LC\nCodec ID : 40\nDuration : 1h 20mn\nBit rate mode : Variable\nBit rate : 192 Kbps\nChannel(s) : 6 channels\nChannel positions : Front: L C R, Side: L R, LFE\nSampling rate : 48.0 KHz\nCompression mode : Lossy\nStream size : 111 MiB (7%)","torrent":{"xt":"urn:btih:187a64cac26b1d8185440723fa51e3e0bd0a85ab","amp;dn":"Piranha.3D.2D_Version.DVDRip+","amp;tr":["udp%3A%2F%2Ftracker.openbittorrent.com%3A80","udp%3A%2F%2Fopen.demonii.com%3A1337","udp%3A%2F%2Ftracker.coppersurfer.tk%3A6969","udp%3A%2F%2Fexodus.desync.com%3A6969"],"infoHash":"187a64cac26b1d8185440723fa51e3e0bd0a85ab","infoHashBuffer":{"type":"Buffer","data":[24,122,100,202,194,107,29,129,133,68,7,35,250,81,227,224,189,10,133,171]},"announce":[],"urlList":[]}}